<svg width="16" height="16" viewBox="0 0 16 16" fill="none" xmlns="http://www.w3.org/2000/svg">
<rect width="16" height="16" fill="#1C1C1E"/>
<g clip-path="url(#clip0_9910_3053)">
<path d="M0 0.631836H15.7747V15.1582H0V0.631836Z" fill="#1D1D1E"/>
<path d="M10.4952 2.13506L12.0303 2.13477L12.0303 6.67428C12.5291 6.67424 13.0376 6.66905 13.5355 6.67586L13.5338 10.9699L13.5333 12.1285C13.5334 12.2254 13.5445 12.5284 13.5331 12.6043L10.4978 12.6064L10.4985 14.1376L9.04884 14.1364L9.05039 12.6058L5.95828 12.6064L5.95904 14.1376L4.50937 14.1364L4.51072 11.1578L2.94885 11.157L2.9482 9.65482L1.50195 9.65374L1.50225 6.67442L2.94902 6.67492L4.51153 6.67418C4.98088 6.67522 5.49092 6.66536 5.95695 6.67632L5.95739 5.1146C6.97426 5.11058 8.03447 5.09914 9.04955 5.11392L9.04911 3.66702L10.4952 3.66715L10.4952 2.13506Z" fill="#F8C546"/>
<path d="M4.51152 6.67496C4.98088 6.676 5.49092 6.66614 5.95695 6.6771L5.95794 9.65552C4.96317 9.65409 3.94209 9.64399 2.9482 9.65559L1.50195 9.65451L1.50225 6.6752L2.94902 6.6757L4.51152 6.67496Z" fill="#E63A39"/>
<path d="M1.50225 6.6748L2.94902 6.6753C2.95027 7.6564 2.9629 8.67588 2.9482 9.6552L1.50195 9.65412L1.50225 6.6748Z" fill="#F8C546"/>
<path d="M10.4949 2.13506L12.03 2.13477L12.0301 6.67428L10.4954 6.67545L9.05083 6.67525L9.04927 5.11392L9.04883 3.66702L10.4949 3.66715L10.4949 2.13506Z" fill="#F8C546"/>
<path d="M9.05078 5.11426L10.4975 5.11578L10.4969 6.67578L9.05234 6.67558L9.05078 5.11426Z" fill="#1D1D1E"/>
<path d="M9.0511 6.67577L10.4957 6.67597L12.0303 6.6748C12.0101 7.64255 12.029 8.68108 12.0295 9.65527C11.0453 9.64253 10.0354 9.65395 9.04883 9.65351L9.0511 6.67577Z" fill="#E63A39"/>
<path d="M2.94922 2.13574L4.51321 2.1358C4.50738 2.64265 4.51256 3.15988 4.51233 3.66759L5.95966 3.66753C5.96228 4.15012 5.96183 4.63271 5.95831 5.1153L5.95787 6.67702C5.49183 6.66605 4.9818 6.67591 4.51244 6.67488L2.94994 6.67561L2.94922 2.13574Z" fill="#F8C546"/>
<path d="M4.51172 5.11682L5.9586 5.11523L5.95817 6.67696C5.49213 6.66599 4.98209 6.67585 4.51274 6.67481L4.51172 5.11682Z" fill="#1D1D1E"/>
</g>
<defs>
<clipPath id="clip0_9910_3053">
<rect width="15.7747" height="14.5263" fill="white" transform="translate(0 0.631836)"/>
</clipPath>
</defs>
</svg>
